<svg xmlns="http://www.w3.org/2000/svg" width="642" height="396" viewBox="0 0 642 396" role="img" aria-label="Feature comparison: Jaunty, Dapper, EF Core" font-family="-apple-system, 'Segoe UI', Roboto, Helvetica, Arial, sans-serif">
<title>Feature comparison: Jaunty, Dapper, EF Core</title>
<rect width="642" height="396" fill="#ffffff"/>
<rect x="1" y="1" width="250" height="34" fill="#f6f8fa" stroke="#d0d7de" rx="0"/>
<text x="13" y="23.0" font-size="14" text-anchor="start" font-weight="bold" fill="#24292f">Feature</text>
<rect x="251" y="1" width="110" height="34" fill="#f6f8fa" stroke="#d0d7de" rx="0"/>
<text x="306.0" y="23.0" font-size="14" text-anchor="middle" font-weight="bold" fill="#24292f">Jaunty</text>
<rect x="361" y="1" width="160" height="34" fill="#f6f8fa" stroke="#d0d7de" rx="0"/>
<text x="441.0" y="23.0" font-size="14" text-anchor="middle" font-weight="bold" fill="#24292f">Dapper</text>
<rect x="521" y="1" width="120" height="34" fill="#f6f8fa" stroke="#d0d7de" rx="0"/>
<text x="581.0" y="23.0" font-size="14" text-anchor="middle" font-weight="bold" fill="#24292f">EF Core</text>
<rect x="1" y="35" width="250" height="30" fill="#ffffff" stroke="#d0d7de" rx="0"/>
<text x="13" y="55.0" font-size="13" text-anchor="start" font-weight="normal" fill="#24292f">Raw SQL execution</text>
<rect x="251" y="35" width="110" height="30" fill="#dcf5e3" stroke="#d0d7de" rx="0"/>
<text x="306.0" y="55.0" font-size="15" text-anchor="middle" font-weight="bold" fill="#1a7f37">✔</text>
<rect x="361" y="35" width="160" height="30" fill="#dcf5e3" stroke="#d0d7de" rx="0"/>
<text x="441.0" y="55.0" font-size="15" text-anchor="middle" font-weight="bold" fill="#1a7f37">✔</text>
<rect x="521" y="35" width="120" height="30" fill="#dcf5e3" stroke="#d0d7de" rx="0"/>
<text x="581.0" y="55.0" font-size="15" text-anchor="middle" font-weight="bold" fill="#1a7f37">✔</text>
<rect x="1" y="65" width="250" height="30" fill="#ffffff" stroke="#d0d7de" rx="0"/>
<text x="13" y="85.0" font-size="13" text-anchor="start" font-weight="normal" fill="#24292f">Strict mapping mode</text>
<rect x="251" y="65" width="110" height="30" fill="#dcf5e3" stroke="#d0d7de" rx="0"/>
<text x="306.0" y="85.0" font-size="15" text-anchor="middle" font-weight="bold" fill="#1a7f37">✔</text>
<rect x="361" y="65" width="160" height="30" fill="#fde2e1" stroke="#d0d7de" rx="0"/>
<text x="441.0" y="85.0" font-size="15" text-anchor="middle" font-weight="bold" fill="#b42318">✘</text>
<rect x="521" y="65" width="120" height="30" fill="#fde2e1" stroke="#d0d7de" rx="0"/>
<text x="581.0" y="85.0" font-size="15" text-anchor="middle" font-weight="bold" fill="#b42318">✘</text>
<rect x="1" y="95" width="250" height="30" fill="#ffffff" stroke="#d0d7de" rx="0"/>
<text x="13" y="115.0" font-size="13" text-anchor="start" font-weight="normal" fill="#24292f">Partial mapping mode</text>
<rect x="251" y="95" width="110" height="30" fill="#dcf5e3" stroke="#d0d7de" rx="0"/>
<text x="306.0" y="115.0" font-size="15" text-anchor="middle" font-weight="bold" fill="#1a7f37">✔</text>
<rect x="361" y="95" width="160" height="30" fill="#dcf5e3" stroke="#d0d7de" rx="0"/>
<text x="441.0" y="115.0" font-size="15" text-anchor="middle" font-weight="bold" fill="#1a7f37">✔</text>
<rect x="521" y="95" width="120" height="30" fill="#dcf5e3" stroke="#d0d7de" rx="0"/>
<text x="581.0" y="115.0" font-size="15" text-anchor="middle" font-weight="bold" fill="#1a7f37">✔</text>
<rect x="1" y="125" width="250" height="30" fill="#ffffff" stroke="#d0d7de" rx="0"/>
<text x="13" y="145.0" font-size="13" text-anchor="start" font-weight="normal" fill="#24292f">Zero dependencies</text>
<rect x="251" y="125" width="110" height="30" fill="#dcf5e3" stroke="#d0d7de" rx="0"/>
<text x="306.0" y="145.0" font-size="15" text-anchor="middle" font-weight="bold" fill="#1a7f37">✔</text>
<rect x="361" y="125" width="160" height="30" fill="#dcf5e3" stroke="#d0d7de" rx="0"/>
<text x="441.0" y="145.0" font-size="15" text-anchor="middle" font-weight="bold" fill="#1a7f37">✔</text>
<rect x="521" y="125" width="120" height="30" fill="#fde2e1" stroke="#d0d7de" rx="0"/>
<text x="581.0" y="145.0" font-size="15" text-anchor="middle" font-weight="bold" fill="#b42318">✘</text>
<rect x="1" y="155" width="250" height="30" fill="#ffffff" stroke="#d0d7de" rx="0"/>
<text x="13" y="175.0" font-size="13" text-anchor="start" font-weight="normal" fill="#24292f">Bulk operations</text>
<rect x="251" y="155" width="110" height="30" fill="#dcf5e3" stroke="#d0d7de" rx="0"/>
<text x="306.0" y="175.0" font-size="15" text-anchor="middle" font-weight="bold" fill="#1a7f37">✔</text>
<rect x="361" y="155" width="160" height="30" fill="#fde2e1" stroke="#d0d7de" rx="0"/>
<text x="441.0" y="175.0" font-size="15" text-anchor="middle" font-weight="bold" fill="#b42318">✘</text>
<rect x="521" y="155" width="120" height="30" fill="#dcf5e3" stroke="#d0d7de" rx="0"/>
<text x="581.0" y="175.0" font-size="15" text-anchor="middle" font-weight="bold" fill="#1a7f37">✔</text>
<rect x="1" y="185" width="250" height="30" fill="#ffffff" stroke="#d0d7de" rx="0"/>
<text x="13" y="205.0" font-size="13" text-anchor="start" font-weight="normal" fill="#24292f">Upsert support</text>
<rect x="251" y="185" width="110" height="30" fill="#dcf5e3" stroke="#d0d7de" rx="0"/>
<text x="306.0" y="205.0" font-size="15" text-anchor="middle" font-weight="bold" fill="#1a7f37">✔</text>
<rect x="361" y="185" width="160" height="30" fill="#fde2e1" stroke="#d0d7de" rx="0"/>
<text x="441.0" y="205.0" font-size="15" text-anchor="middle" font-weight="bold" fill="#b42318">✘</text>
<rect x="521" y="185" width="120" height="30" fill="#dcf5e3" stroke="#d0d7de" rx="0"/>
<text x="581.0" y="205.0" font-size="15" text-anchor="middle" font-weight="bold" fill="#1a7f37">✔</text>
<rect x="1" y="215" width="250" height="30" fill="#ffffff" stroke="#d0d7de" rx="0"/>
<text x="13" y="235.0" font-size="13" text-anchor="start" font-weight="normal" fill="#24292f">Streaming (IAsyncEnumerable)</text>
<rect x="251" y="215" width="110" height="30" fill="#dcf5e3" stroke="#d0d7de" rx="0"/>
<text x="306.0" y="235.0" font-size="15" text-anchor="middle" font-weight="bold" fill="#1a7f37">✔</text>
<rect x="361" y="215" width="160" height="30" fill="#fde2e1" stroke="#d0d7de" rx="0"/>
<text x="441.0" y="235.0" font-size="15" text-anchor="middle" font-weight="bold" fill="#b42318">✘</text>
<rect x="521" y="215" width="120" height="30" fill="#dcf5e3" stroke="#d0d7de" rx="0"/>
<text x="581.0" y="235.0" font-size="15" text-anchor="middle" font-weight="bold" fill="#1a7f37">✔</text>
<rect x="1" y="245" width="250" height="30" fill="#ffffff" stroke="#d0d7de" rx="0"/>
<text x="13" y="265.0" font-size="13" text-anchor="start" font-weight="normal" fill="#24292f">Multiple result sets</text>
<rect x="251" y="245" width="110" height="30" fill="#dcf5e3" stroke="#d0d7de" rx="0"/>
<text x="306.0" y="265.0" font-size="15" text-anchor="middle" font-weight="bold" fill="#1a7f37">✔</text>
<rect x="361" y="245" width="160" height="30" fill="#dcf5e3" stroke="#d0d7de" rx="0"/>
<text x="441.0" y="265.0" font-size="15" text-anchor="middle" font-weight="bold" fill="#1a7f37">✔</text>
<rect x="521" y="245" width="120" height="30" fill="#fff3cd" stroke="#d0d7de" rx="0"/>
<text x="581.0" y="265.0" font-size="12" text-anchor="middle" font-weight="normal" fill="#8a6d00">limited</text>
<rect x="1" y="275" width="250" height="30" fill="#ffffff" stroke="#d0d7de" rx="0"/>
<text x="13" y="295.0" font-size="13" text-anchor="start" font-weight="normal" fill="#24292f">Stored procedures</text>
<rect x="251" y="275" width="110" height="30" fill="#dcf5e3" stroke="#d0d7de" rx="0"/>
<text x="306.0" y="295.0" font-size="15" text-anchor="middle" font-weight="bold" fill="#1a7f37">✔</text>
<rect x="361" y="275" width="160" height="30" fill="#dcf5e3" stroke="#d0d7de" rx="0"/>
<text x="441.0" y="295.0" font-size="15" text-anchor="middle" font-weight="bold" fill="#1a7f37">✔</text>
<rect x="521" y="275" width="120" height="30" fill="#dcf5e3" stroke="#d0d7de" rx="0"/>
<text x="581.0" y="295.0" font-size="15" text-anchor="middle" font-weight="bold" fill="#1a7f37">✔</text>
<rect x="1" y="305" width="250" height="30" fill="#ffffff" stroke="#d0d7de" rx="0"/>
<text x="13" y="325.0" font-size="13" text-anchor="start" font-weight="normal" fill="#24292f">NativeAOT in the box</text>
<rect x="251" y="305" width="110" height="30" fill="#dcf5e3" stroke="#d0d7de" rx="0"/>
<text x="306.0" y="325.0" font-size="15" text-anchor="middle" font-weight="bold" fill="#1a7f37">✔</text>
<rect x="361" y="305" width="160" height="30" fill="#fff3cd" stroke="#d0d7de" rx="0"/>
<text x="441.0" y="325.0" font-size="12" text-anchor="middle" font-weight="normal" fill="#8a6d00">separate package</text>
<rect x="521" y="305" width="120" height="30" fill="#fff3cd" stroke="#d0d7de" rx="0"/>
<text x="581.0" y="325.0" font-size="12" text-anchor="middle" font-weight="normal" fill="#8a6d00">partial</text>
<rect x="1" y="335" width="250" height="30" fill="#ffffff" stroke="#d0d7de" rx="0"/>
<text x="13" y="355.0" font-size="13" text-anchor="start" font-weight="normal" fill="#24292f">LINQ translation</text>
<rect x="251" y="335" width="110" height="30" fill="#fde2e1" stroke="#d0d7de" rx="0"/>
<text x="306.0" y="355.0" font-size="15" text-anchor="middle" font-weight="bold" fill="#b42318">✘</text>
<rect x="361" y="335" width="160" height="30" fill="#fde2e1" stroke="#d0d7de" rx="0"/>
<text x="441.0" y="355.0" font-size="15" text-anchor="middle" font-weight="bold" fill="#b42318">✘</text>
<rect x="521" y="335" width="120" height="30" fill="#dcf5e3" stroke="#d0d7de" rx="0"/>
<text x="581.0" y="355.0" font-size="15" text-anchor="middle" font-weight="bold" fill="#1a7f37">✔</text>
<rect x="1" y="365" width="250" height="30" fill="#ffffff" stroke="#d0d7de" rx="0"/>
<text x="13" y="385.0" font-size="13" text-anchor="start" font-weight="normal" fill="#24292f">Change tracking</text>
<rect x="251" y="365" width="110" height="30" fill="#fde2e1" stroke="#d0d7de" rx="0"/>
<text x="306.0" y="385.0" font-size="15" text-anchor="middle" font-weight="bold" fill="#b42318">✘</text>
<rect x="361" y="365" width="160" height="30" fill="#fde2e1" stroke="#d0d7de" rx="0"/>
<text x="441.0" y="385.0" font-size="15" text-anchor="middle" font-weight="bold" fill="#b42318">✘</text>
<rect x="521" y="365" width="120" height="30" fill="#dcf5e3" stroke="#d0d7de" rx="0"/>
<text x="581.0" y="385.0" font-size="15" text-anchor="middle" font-weight="bold" fill="#1a7f37">✔</text>
</svg>
